<?xml version='1.0' encoding='UTF-8' standalone='no'?>
<svg width="297mm" xmlns:svg="http://www.w3.org/2000/svg" xmlns:xlink="http://www.w3.org/1999/xlink" xmlns:inkscape="http://www.inkscape.org/namespaces/inkscape" xmlns:cc="http://creativecommons.org/ns#" viewBox="0 0 2970 2100" xmlns:rdf="http://www.w3.org/1999/02/22-rdf-syntax-ns#" xmlns:dc="http://purl.org/dc/elements/1.1/" xmlns="http://www.w3.org/2000/svg" height="210mm" xmlns:freecad="http://www.freecadweb.org/wiki/index.php?title=Svg_Namespace" version="1.2" baseProfile="tiny">
 <title>FreeCAD SVG Export</title>
 <desc>Drawing page: Page exported from FreeCAD document: Base</desc>
 <defs/>
 <g id="Page" inkscape:groupmode="layer" inkscape:label="TechDraw">
  <g fill="none" stroke-width="1" stroke="black" id="DrawingContent" stroke-linecap="square" stroke-linejoin="bevel" fill-rule="evenodd">
   <g font-weight="400" font-style="normal" font-size="35.2778" fill="none" stroke-opacity="1" font-family="Noto Sans" stroke-width="1" stroke="#000000" transform="matrix(1,0,0,1,1485,1050)" stroke-linecap="square" stroke-linejoin="bevel">
    <rect width="0" y="0" x="0" height="0"/>
   </g>
   <g fill-opacity="1" font-weight="400" font-style="normal" font-size="35.2778" fill="#ffffff" font-family="Noto Sans" stroke="none" transform="matrix(1,0,0,1,1485,1050)">
    <path vector-effect="non-scaling-stroke" d="M1403.26,519.615 L1403.26,-519.615 L979.7,-275.074 C763.542,-503.828 298.953,-650.016 -211.826,-650 C-722.606,-649.984 -1187.16,-503.767 -1403.26,-275 L-1403.26,-136.45 L-1283.29,-205.769 L-926.743,-7.10543e-14 L-1403.26,275 C-1186.95,503.992 -721.72,650.25 -210.439,650 C300.842,649.749 765.48,503.035 980.871,273.831 L1403.26,519.615" fill-rule="evenodd"/>
   </g>
   <g font-weight="400" font-style="normal" font-size="35.2778" fill="none" stroke-opacity="1" font-family="Noto Sans" stroke-width="1" stroke="#000000" transform="matrix(1,0,0,1,1485,1050)" stroke-linecap="square" stroke-linejoin="bevel">
    <rect width="0" y="0" x="0" height="0"/>
   </g>
   <g fill-opacity="1" font-weight="400" font-style="normal" font-size="35.2778" fill="#ffffff" font-family="Noto Sans" stroke="none" transform="matrix(1,0,0,1,1485,1050)">
    <path vector-effect="non-scaling-stroke" d="M73.2567,-581.145 L73.2567,-501.145 L-496.743,-501.145 L-496.743,-581.145 L73.2567,-581.145" fill-rule="evenodd"/>
   </g>
   <g font-weight="400" font-style="normal" font-size="35.2778" fill="none" stroke-opacity="1" font-family="Noto Sans" stroke-width="1" stroke="#000000" transform="matrix(1,0,0,1,1485,1050)" stroke-linecap="square" stroke-linejoin="bevel">
    <rect width="0" y="0" x="0" height="0"/>
   </g>
   <g fill-opacity="1" font-weight="400" font-style="normal" font-size="35.2778" fill="#ffffff" font-family="Noto Sans" stroke="none" transform="matrix(1,0,0,1,1485,1050)">
    <path vector-effect="non-scaling-stroke" d="M73.2566,501.145 L73.2566,581.145 L-496.743,581.145 L-496.743,501.145 L73.2566,501.145" fill-rule="evenodd"/>
   </g>
   <g font-weight="400" font-style="normal" font-size="35.2778" fill="none" stroke-opacity="1" font-family="Noto Sans" stroke-width="1" stroke="#000000" transform="matrix(1,0,0,1,1485,1050)" stroke-linecap="square" stroke-linejoin="bevel">
    <rect width="0" y="0" x="0" height="0"/>
   </g>
   <g fill-opacity="1" font-weight="400" font-style="normal" font-size="35.2778" fill="#ffffff" font-family="Noto Sans" stroke="none" transform="matrix(1,0,0,1,1485,1050)">
    <path vector-effect="non-scaling-stroke" d="M-1151.21,-292.211 C-1151.21,-263.245 -1101.73,-239.764 -1040.7,-239.764 C-979.664,-239.764 -930.186,-263.245 -930.186,-292.211 M-930.186,-292.211 C-930.186,-321.176 -979.664,-344.658 -1040.7,-344.658 C-1101.73,-344.658 -1151.21,-321.176 -1151.21,-292.211 " fill-rule="evenodd"/>
   </g>
   <g font-weight="400" font-style="normal" font-size="35.2778" fill="none" stroke-opacity="1" font-family="Noto Sans" stroke-width="1" stroke="#000000" transform="matrix(1,0,0,1,1485,1050)" stroke-linecap="square" stroke-linejoin="bevel">
    <rect width="0" y="0" x="0" height="0"/>
   </g>
   <g fill-opacity="1" font-weight="400" font-style="normal" font-size="35.2778" fill="#ffffff" font-family="Noto Sans" stroke="none" transform="matrix(1,0,0,1,1485,1050)">
    <path vector-effect="non-scaling-stroke" d="M-22.2932,-247.673 L-22.2932,-158.763 C-22.2932,-147.717 -31.2475,-138.763 -42.2932,-138.763 L-131.203,-138.763 C-142.249,-138.763 -151.203,-147.717 -151.203,-158.763 L-151.203,-247.673 C-151.203,-258.718 -142.249,-267.673 -131.203,-267.673 L-42.2932,-267.673 C-31.2475,-267.673 -22.2932,-258.718 -22.2932,-247.673 " fill-rule="evenodd"/>
   </g>
   <g font-weight="400" font-style="normal" font-size="35.2778" fill="none" stroke-opacity="1" font-family="Noto Sans" stroke-width="1" stroke="#000000" transform="matrix(1,0,0,1,1485,1050)" stroke-linecap="square" stroke-linejoin="bevel">
    <rect width="0" y="0" x="0" height="0"/>
   </g>
   <g fill-opacity="1" font-weight="400" font-style="normal" font-size="35.2778" fill="#ffffff" font-family="Noto Sans" stroke="none" transform="matrix(1,0,0,1,1485,1050)">
    <path vector-effect="non-scaling-stroke" d="M-1238.76,275 C-1238.76,283.008 -1245.25,289.5 -1253.26,289.5 C-1261.26,289.5 -1267.76,283.008 -1267.76,275 C-1267.76,266.992 -1261.26,260.5 -1253.26,260.5 C-1245.25,260.5 -1238.76,266.992 -1238.76,275 " fill-rule="evenodd"/>
   </g>
   <g font-weight="400" font-style="normal" font-size="35.2778" fill="none" stroke-opacity="1" font-family="Noto Sans" stroke-width="1" stroke="#000000" transform="matrix(1,0,0,1,1485,1050)" stroke-linecap="square" stroke-linejoin="bevel">
    <rect width="0" y="0" x="0" height="0"/>
   </g>
   <g fill-opacity="1" font-weight="400" font-style="normal" font-size="35.2778" fill="#ffffff" font-family="Noto Sans" stroke="none" transform="matrix(1,0,0,1,1485,1050)">
    <path vector-effect="non-scaling-stroke" d="M-1238.76,-275 C-1238.76,-266.992 -1245.25,-260.5 -1253.26,-260.5 C-1261.26,-260.5 -1267.76,-266.992 -1267.76,-275 C-1267.76,-283.008 -1261.26,-289.5 -1253.26,-289.5 C-1245.25,-289.5 -1238.76,-283.008 -1238.76,-275 " fill-rule="evenodd"/>
   </g>
   <g font-weight="400" font-style="normal" font-size="35.2778" fill="none" stroke-opacity="1" font-family="Noto Sans" stroke-width="1" stroke="#000000" transform="matrix(1,0,0,1,1485,1050)" stroke-linecap="square" stroke-linejoin="bevel">
    <rect width="0" y="0" x="0" height="0"/>
   </g>
   <g fill-opacity="1" font-weight="400" font-style="normal" font-size="35.2778" fill="#ffffff" font-family="Noto Sans" stroke="none" transform="matrix(1,0,0,1,1485,1050)">
    <path vector-effect="non-scaling-stroke" d="M-675.703,-242.763 C-675.703,-234.755 -682.195,-228.263 -690.203,-228.263 C-698.211,-228.263 -704.703,-234.755 -704.703,-242.763 C-704.703,-250.771 -698.211,-257.263 -690.203,-257.263 C-682.195,-257.263 -675.703,-250.771 -675.703,-242.763 " fill-rule="evenodd"/>
   </g>
   <g font-weight="400" font-style="normal" font-size="35.2778" fill="none" stroke-opacity="1" font-family="Noto Sans" stroke-width="1" stroke="#000000" transform="matrix(1,0,0,1,1485,1050)" stroke-linecap="square" stroke-linejoin="bevel">
    <rect width="0" y="0" x="0" height="0"/>
   </g>
   <g fill-opacity="1" font-weight="400" font-style="normal" font-size="35.2778" fill="#ffffff" font-family="Noto Sans" stroke="none" transform="matrix(1,0,0,1,1485,1050)">
    <path vector-effect="non-scaling-stroke" d="M624.707,-280.311 C624.707,-272.303 618.215,-265.811 610.207,-265.811 C602.199,-265.811 595.707,-272.303 595.707,-280.311 C595.707,-288.319 602.199,-294.811 610.207,-294.811 C618.215,-294.811 624.707,-288.319 624.707,-280.311 " fill-rule="evenodd"/>
   </g>
   <g font-weight="400" font-style="normal" font-size="35.2778" fill="none" stroke-opacity="1" font-family="Noto Sans" stroke-width="1" stroke="#000000" transform="matrix(1,0,0,1,1485,1050)" stroke-linecap="square" stroke-linejoin="bevel">
    <rect width="0" y="0" x="0" height="0"/>
   </g>
   <g fill-opacity="1" font-weight="400" font-style="normal" font-size="35.2778" fill="#ffffff" font-family="Noto Sans" stroke="none" transform="matrix(1,0,0,1,1485,1050)">
    <path vector-effect="non-scaling-stroke" d="M1187.76,-75 C1187.76,-66.9919 1181.26,-60.5 1173.26,-60.5 C1165.25,-60.5 1158.76,-66.9919 1158.76,-75 C1158.76,-83.0081 1165.25,-89.5 1173.26,-89.5 C1181.26,-89.5 1187.76,-83.0081 1187.76,-75 " fill-rule="evenodd"/>
   </g>
   <g font-weight="400" font-style="normal" font-size="35.2778" fill="none" stroke-opacity="1" font-family="Noto Sans" stroke-width="1" stroke="#000000" transform="matrix(1,0,0,1,1485,1050)" stroke-linecap="square" stroke-linejoin="bevel">
    <rect width="0" y="0" x="0" height="0"/>
   </g>
   <g fill-opacity="1" font-weight="400" font-style="normal" font-size="35.2778" fill="#ffffff" font-family="Noto Sans" stroke="none" transform="matrix(1,0,0,1,1485,1050)">
    <path vector-effect="non-scaling-stroke" d="M-165.703,-89.7629 C-165.703,-81.7547 -172.195,-75.2629 -180.203,-75.2629 C-188.211,-75.2629 -194.703,-81.7547 -194.703,-89.7629 C-194.703,-97.771 -188.211,-104.263 -180.203,-104.263 C-172.195,-104.263 -165.703,-97.771 -165.703,-89.7629 " fill-rule="evenodd"/>
   </g>
   <g font-weight="400" font-style="normal" font-size="35.2778" fill="none" stroke-opacity="1" font-family="Noto Sans" stroke-width="1" stroke="#000000" transform="matrix(1,0,0,1,1485,1050)" stroke-linecap="square" stroke-linejoin="bevel">
    <rect width="0" y="0" x="0" height="0"/>
   </g>
   <g fill-opacity="1" font-weight="400" font-style="normal" font-size="35.2778" fill="#ffffff" font-family="Noto Sans" stroke="none" transform="matrix(1,0,0,1,1485,1050)">
    <path vector-effect="non-scaling-stroke" d="M624.707,297.689 C624.707,305.697 618.215,312.189 610.207,312.189 C602.199,312.189 595.707,305.697 595.707,297.689 C595.707,289.681 602.199,283.189 610.207,283.189 C618.215,283.189 624.707,289.681 624.707,297.689 " fill-rule="evenodd"/>
   </g>
   <g font-weight="400" font-style="normal" font-size="35.2778" fill="none" stroke-opacity="1" font-family="Noto Sans" stroke-width="1" stroke="#000000" transform="matrix(1,0,0,1,1485,1050)" stroke-linecap="square" stroke-linejoin="bevel">
    <rect width="0" y="0" x="0" height="0"/>
   </g>
   <g fill-opacity="1" font-weight="400" font-style="normal" font-size="35.2778" fill="#ffffff" font-family="Noto Sans" stroke="none" transform="matrix(1,0,0,1,1485,1050)">
    <path vector-effect="non-scaling-stroke" d="M-165.703,199.237 C-165.703,207.245 -172.195,213.737 -180.203,213.737 C-188.211,213.737 -194.703,207.245 -194.703,199.237 C-194.703,191.229 -188.211,184.737 -180.203,184.737 C-172.195,184.737 -165.703,191.229 -165.703,199.237 " fill-rule="evenodd"/>
   </g>
   <g font-weight="400" font-style="normal" font-size="35.2778" fill="none" stroke-opacity="1" font-family="Noto Sans" stroke-width="1" stroke="#000000" transform="matrix(1,0,0,1,1485,1050)" stroke-linecap="square" stroke-linejoin="bevel">
    <rect width="0" y="0" x="0" height="0"/>
   </g>
   <g fill-opacity="1" font-weight="400" font-style="normal" font-size="35.2778" fill="#ffffff" font-family="Noto Sans" stroke="none" transform="matrix(1,0,0,1,1485,1050)">
    <path vector-effect="non-scaling-stroke" d="M1337.76,75 C1337.76,83.0081 1331.26,89.5 1323.26,89.5 C1315.25,89.5 1308.76,83.0081 1308.76,75 C1308.76,66.9919 1315.25,60.5 1323.26,60.5 C1331.26,60.5 1337.76,66.9919 1337.76,75 " fill-rule="evenodd"/>
   </g>
   <g font-weight="400" font-style="normal" font-size="35.2778" fill="none" stroke-opacity="1" font-family="Noto Sans" stroke-width="1" stroke="#000000" transform="matrix(1,0,0,1,1485,1050)" stroke-linecap="square" stroke-linejoin="bevel">
    <rect width="0" y="0" x="0" height="0"/>
   </g>
   <g fill-opacity="1" font-weight="400" font-style="normal" font-size="35.2778" fill="#ffffff" font-family="Noto Sans" stroke="none" transform="matrix(1,0,0,1,1485,1050)">
    <path vector-effect="non-scaling-stroke" d="M1187.76,75 C1187.76,83.0081 1181.26,89.5 1173.26,89.5 C1165.25,89.5 1158.76,83.0081 1158.76,75 C1158.76,66.9919 1165.25,60.5 1173.26,60.5 C1181.26,60.5 1187.76,66.9919 1187.76,75 " fill-rule="evenodd"/>
   </g>
   <g font-weight="400" font-style="normal" font-size="35.2778" fill="none" stroke-opacity="1" font-family="Noto Sans" stroke-width="1" stroke="#000000" transform="matrix(1,0,0,1,1485,1050)" stroke-linecap="square" stroke-linejoin="bevel">
    <rect width="0" y="0" x="0" height="0"/>
   </g>
   <g fill-opacity="1" font-weight="400" font-style="normal" font-size="35.2778" fill="#ffffff" font-family="Noto Sans" stroke="none" transform="matrix(1,0,0,1,1485,1050)">
    <path vector-effect="non-scaling-stroke" d="M-689.703,249.237 C-689.703,257.245 -696.195,263.737 -704.203,263.737 C-712.211,263.737 -718.703,257.245 -718.703,249.237 C-718.703,241.229 -712.211,234.737 -704.203,234.737 C-696.195,234.737 -689.703,241.229 -689.703,249.237 " fill-rule="evenodd"/>
   </g>
   <g font-weight="400" font-style="normal" font-size="35.2778" fill="none" stroke-opacity="1" font-family="Noto Sans" stroke-width="1" stroke="#000000" transform="matrix(1,0,0,1,1485,1050)" stroke-linecap="square" stroke-linejoin="bevel">
    <rect width="0" y="0" x="0" height="0"/>
   </g>
   <g fill-opacity="1" font-weight="400" font-style="normal" font-size="35.2778" fill="#ffffff" font-family="Noto Sans" stroke="none" transform="matrix(1,0,0,1,1485,1050)">
    <path vector-effect="non-scaling-stroke" d="M1337.76,-75 C1337.76,-66.9919 1331.26,-60.5 1323.26,-60.5 C1315.25,-60.5 1308.76,-66.9919 1308.76,-75 C1308.76,-83.0081 1315.25,-89.5 1323.26,-89.5 C1331.26,-89.5 1337.76,-83.0081 1337.76,-75 " fill-rule="evenodd"/>
   </g>
   <g font-weight="400" font-style="normal" font-size="35.2778" fill="none" stroke-opacity="1" font-family="Noto Sans" stroke-width="1" stroke="#000000" transform="matrix(1,0,0,1,1485,1050)" stroke-linecap="square" stroke-linejoin="bevel">
    <rect width="0" y="0" x="0" height="0"/>
   </g>
   <g fill-opacity="1" font-weight="400" font-style="normal" font-size="35.2778" fill="#ffffff" font-family="Noto Sans" stroke="none" transform="matrix(1,0,0,1,1485,1050)">
    <path vector-effect="non-scaling-stroke" d="M-377.393,411.529 C-377.393,418.432 -382.99,424.029 -389.893,424.029 C-396.797,424.029 -402.393,418.432 -402.393,411.529 C-402.393,404.625 -396.797,399.029 -389.893,399.029 C-382.99,399.029 -377.393,404.625 -377.393,411.529 " fill-rule="evenodd"/>
   </g>
   <g font-weight="400" font-style="normal" font-size="35.2778" fill="none" stroke-opacity="1" font-family="Noto Sans" stroke-width="1" stroke="#000000" transform="matrix(1,0,0,1,1485,1050)" stroke-linecap="square" stroke-linejoin="bevel">
    <rect width="0" y="0" x="0" height="0"/>
   </g>
   <g fill-opacity="1" font-weight="400" font-style="normal" font-size="35.2778" fill="#ffffff" font-family="Noto Sans" stroke="none" transform="matrix(1,0,0,1,1485,1050)">
    <path vector-effect="non-scaling-stroke" d="M-573.493,-411.511 C-573.493,-404.608 -579.09,-399.011 -585.993,-399.011 C-592.897,-399.011 -598.493,-404.608 -598.493,-411.511 C-598.493,-418.415 -592.897,-424.011 -585.993,-424.011 C-579.09,-424.011 -573.493,-418.415 -573.493,-411.511 " fill-rule="evenodd"/>
   </g>
   <g font-weight="400" font-style="normal" font-size="35.2778" fill="none" stroke-opacity="1" font-family="Noto Sans" stroke-width="1" stroke="#000000" transform="matrix(1,0,0,1,1485,1050)" stroke-linecap="square" stroke-linejoin="bevel">
    <rect width="0" y="0" x="0" height="0"/>
   </g>
   <g fill-opacity="1" font-weight="400" font-style="normal" font-size="35.2778" fill="#ffffff" font-family="Noto Sans" stroke="none" transform="matrix(1,0,0,1,1485,1050)">
    <path vector-effect="non-scaling-stroke" d="M175.007,411.529 C175.007,418.432 169.41,424.029 162.507,424.029 C155.603,424.029 150.007,418.432 150.007,411.529 C150.007,404.625 155.603,399.029 162.507,399.029 C169.41,399.029 175.007,404.625 175.007,411.529 " fill-rule="evenodd"/>
   </g>
   <g font-weight="400" font-style="normal" font-size="35.2778" fill="none" stroke-opacity="1" font-family="Noto Sans" stroke-width="1" stroke="#000000" transform="matrix(1,0,0,1,1485,1050)" stroke-linecap="square" stroke-linejoin="bevel">
    <rect width="0" y="0" x="0" height="0"/>
   </g>
   <g fill-opacity="1" font-weight="400" font-style="normal" font-size="35.2778" fill="#ffffff" font-family="Noto Sans" stroke="none" transform="matrix(1,0,0,1,1485,1050)">
    <path vector-effect="non-scaling-stroke" d="M-21.0933,-411.511 C-21.0933,-404.608 -26.6898,-399.011 -33.5933,-399.011 C-40.4969,-399.011 -46.0933,-404.608 -46.0933,-411.511 C-46.0933,-418.415 -40.4969,-424.011 -33.5933,-424.011 C-26.6898,-424.011 -21.0933,-418.415 -21.0933,-411.511 " fill-rule="evenodd"/>
   </g>
   <g font-weight="400" font-style="normal" font-size="35.2778" fill="none" stroke-opacity="1" font-family="Noto Sans" stroke-width="1" stroke="#000000" transform="matrix(1,0,0,1,1485,1050)" stroke-linecap="square" stroke-linejoin="bevel">
    <rect width="0" y="0" x="0" height="0"/>
   </g>
   <g font-weight="400" font-style="normal" font-size="35.2778" fill="none" stroke-opacity="1" font-family="Noto Sans" stroke-width="7" stroke="#000000" transform="matrix(1,0,0,1,1485,1050)" stroke-linecap="round" stroke-linejoin="bevel">
    <path vector-effect="none" d="M1403.26,519.615 L1403.26,-519.615" fill-rule="evenodd"/>
   </g>
   <g font-weight="400" font-style="normal" font-size="35.2778" fill="none" stroke-opacity="1" font-family="Noto Sans" stroke-width="7" stroke="#000000" transform="matrix(1,0,0,1,1485,1050)" stroke-linecap="round" stroke-linejoin="bevel">
    <path vector-effect="none" d="M1403.26,-519.615 L979.7,-275.074" fill-rule="evenodd"/>
   </g>
   <g font-weight="400" font-style="normal" font-size="35.2778" fill="none" stroke-opacity="1" font-family="Noto Sans" stroke-width="7" stroke="#000000" transform="matrix(1,0,0,1,1485,1050)" stroke-linecap="round" stroke-linejoin="bevel">
    <path vector-effect="none" d="M979.7,-275.074 C763.542,-503.828 298.953,-650.016 -211.826,-650 C-722.606,-649.984 -1187.16,-503.767 -1403.26,-275 " fill-rule="evenodd"/>
   </g>
   <g font-weight="400" font-style="normal" font-size="35.2778" fill="none" stroke-opacity="1" font-family="Noto Sans" stroke-width="7" stroke="#000000" transform="matrix(1,0,0,1,1485,1050)" stroke-linecap="round" stroke-linejoin="bevel">
    <path vector-effect="none" d="M-1403.26,-275 L-1403.26,-136.45" fill-rule="evenodd"/>
   </g>
   <g font-weight="400" font-style="normal" font-size="35.2778" fill="none" stroke-opacity="1" font-family="Noto Sans" stroke-width="7" stroke="#000000" transform="matrix(1,0,0,1,1485,1050)" stroke-linecap="round" stroke-linejoin="bevel">
    <path vector-effect="none" d="M-1403.26,-136.45 L-1283.29,-205.769" fill-rule="evenodd"/>
   </g>
   <g font-weight="400" font-style="normal" font-size="35.2778" fill="none" stroke-opacity="1" font-family="Noto Sans" stroke-width="7" stroke="#000000" transform="matrix(1,0,0,1,1485,1050)" stroke-linecap="round" stroke-linejoin="bevel">
    <path vector-effect="none" d="M-1283.29,-205.769 L-926.743,-7.10543e-14" fill-rule="evenodd"/>
   </g>
   <g font-weight="400" font-style="normal" font-size="35.2778" fill="none" stroke-opacity="1" font-family="Noto Sans" stroke-width="7" stroke="#000000" transform="matrix(1,0,0,1,1485,1050)" stroke-linecap="round" stroke-linejoin="bevel">
    <path vector-effect="none" d="M-926.743,-7.10543e-14 L-1403.26,275" fill-rule="evenodd"/>
   </g>
   <g font-weight="400" font-style="normal" font-size="35.2778" fill="none" stroke-opacity="1" font-family="Noto Sans" stroke-width="7" stroke="#000000" transform="matrix(1,0,0,1,1485,1050)" stroke-linecap="round" stroke-linejoin="bevel">
    <path vector-effect="none" d="M-1403.26,275 C-1186.95,503.992 -721.72,650.25 -210.439,650 C300.842,649.749 765.48,503.035 980.871,273.831 " fill-rule="evenodd"/>
   </g>
   <g font-weight="400" font-style="normal" font-size="35.2778" fill="none" stroke-opacity="1" font-family="Noto Sans" stroke-width="7" stroke="#000000" transform="matrix(1,0,0,1,1485,1050)" stroke-linecap="round" stroke-linejoin="bevel">
    <path vector-effect="none" d="M1403.26,519.615 L980.871,273.831" fill-rule="evenodd"/>
   </g>
   <g font-weight="400" font-style="normal" font-size="35.2778" fill="none" stroke-opacity="1" font-family="Noto Sans" stroke-width="7" stroke="#000000" transform="matrix(1,0,0,1,1485,1050)" stroke-linecap="round" stroke-linejoin="bevel">
    <path vector-effect="none" d="M-496.743,-581.145 L73.2567,-581.145" fill-rule="evenodd"/>
   </g>
   <g font-weight="400" font-style="normal" font-size="35.2778" fill="none" stroke-opacity="1" font-family="Noto Sans" stroke-width="7" stroke="#000000" transform="matrix(1,0,0,1,1485,1050)" stroke-linecap="round" stroke-linejoin="bevel">
    <path vector-effect="none" d="M73.2567,-581.145 L73.2567,-501.145" fill-rule="evenodd"/>
   </g>
   <g font-weight="400" font-style="normal" font-size="35.2778" fill="none" stroke-opacity="1" font-family="Noto Sans" stroke-width="7" stroke="#000000" transform="matrix(1,0,0,1,1485,1050)" stroke-linecap="round" stroke-linejoin="bevel">
    <path vector-effect="none" d="M73.2567,-501.145 L-496.743,-501.145" fill-rule="evenodd"/>
   </g>
   <g font-weight="400" font-style="normal" font-size="35.2778" fill="none" stroke-opacity="1" font-family="Noto Sans" stroke-width="7" stroke="#000000" transform="matrix(1,0,0,1,1485,1050)" stroke-linecap="round" stroke-linejoin="bevel">
    <path vector-effect="none" d="M-496.743,-501.145 L-496.743,-581.145" fill-rule="evenodd"/>
   </g>
   <g font-weight="400" font-style="normal" font-size="35.2778" fill="none" stroke-opacity="1" font-family="Noto Sans" stroke-width="7" stroke="#000000" transform="matrix(1,0,0,1,1485,1050)" stroke-linecap="round" stroke-linejoin="bevel">
    <path vector-effect="none" d="M-496.743,501.145 L73.2566,501.145" fill-rule="evenodd"/>
   </g>
   <g font-weight="400" font-style="normal" font-size="35.2778" fill="none" stroke-opacity="1" font-family="Noto Sans" stroke-width="7" stroke="#000000" transform="matrix(1,0,0,1,1485,1050)" stroke-linecap="round" stroke-linejoin="bevel">
    <path vector-effect="none" d="M73.2566,501.145 L73.2566,581.145" fill-rule="evenodd"/>
   </g>
   <g font-weight="400" font-style="normal" font-size="35.2778" fill="none" stroke-opacity="1" font-family="Noto Sans" stroke-width="7" stroke="#000000" transform="matrix(1,0,0,1,1485,1050)" stroke-linecap="round" stroke-linejoin="bevel">
    <path vector-effect="none" d="M73.2566,581.145 L-496.743,581.145" fill-rule="evenodd"/>
   </g>
   <g font-weight="400" font-style="normal" font-size="35.2778" fill="none" stroke-opacity="1" font-family="Noto Sans" stroke-width="7" stroke="#000000" transform="matrix(1,0,0,1,1485,1050)" stroke-linecap="round" stroke-linejoin="bevel">
    <path vector-effect="none" d="M-496.743,581.145 L-496.743,501.145" fill-rule="evenodd"/>
   </g>
   <g font-weight="400" font-style="normal" font-size="35.2778" fill="none" stroke-opacity="1" font-family="Noto Sans" stroke-width="7" stroke="#000000" transform="matrix(1,0,0,1,1485,1050)" stroke-linecap="round" stroke-linejoin="bevel">
    <path vector-effect="none" d="M-1151.21,-292.211 C-1151.21,-263.245 -1101.73,-239.764 -1040.7,-239.764 C-979.664,-239.764 -930.186,-263.245 -930.186,-292.211 M-930.186,-292.211 C-930.186,-321.176 -979.664,-344.658 -1040.7,-344.658 C-1101.73,-344.658 -1151.21,-321.176 -1151.21,-292.211 " fill-rule="evenodd"/>
   </g>
   <g font-weight="400" font-style="normal" font-size="35.2778" fill="none" stroke-opacity="1" font-family="Noto Sans" stroke-width="7" stroke="#000000" transform="matrix(1,0,0,1,1485,1050)" stroke-linecap="round" stroke-linejoin="bevel">
    <path vector-effect="none" d="M-131.203,-267.673 C-142.249,-267.673 -151.203,-258.718 -151.203,-247.673 " fill-rule="evenodd"/>
   </g>
   <g font-weight="400" font-style="normal" font-size="35.2778" fill="none" stroke-opacity="1" font-family="Noto Sans" stroke-width="7" stroke="#000000" transform="matrix(1,0,0,1,1485,1050)" stroke-linecap="round" stroke-linejoin="bevel">
    <path vector-effect="none" d="M-151.203,-158.763 L-151.203,-247.673" fill-rule="evenodd"/>
   </g>
   <g font-weight="400" font-style="normal" font-size="35.2778" fill="none" stroke-opacity="1" font-family="Noto Sans" stroke-width="7" stroke="#000000" transform="matrix(1,0,0,1,1485,1050)" stroke-linecap="round" stroke-linejoin="bevel">
    <path vector-effect="none" d="M-151.203,-158.763 C-151.203,-147.717 -142.249,-138.763 -131.203,-138.763 " fill-rule="evenodd"/>
   </g>
   <g font-weight="400" font-style="normal" font-size="35.2778" fill="none" stroke-opacity="1" font-family="Noto Sans" stroke-width="7" stroke="#000000" transform="matrix(1,0,0,1,1485,1050)" stroke-linecap="round" stroke-linejoin="bevel">
    <path vector-effect="none" d="M-42.2932,-138.763 L-131.203,-138.763" fill-rule="evenodd"/>
   </g>
   <g font-weight="400" font-style="normal" font-size="35.2778" fill="none" stroke-opacity="1" font-family="Noto Sans" stroke-width="7" stroke="#000000" transform="matrix(1,0,0,1,1485,1050)" stroke-linecap="round" stroke-linejoin="bevel">
    <path vector-effect="none" d="M-42.2932,-138.763 C-31.2475,-138.763 -22.2932,-147.717 -22.2932,-158.763 " fill-rule="evenodd"/>
   </g>
   <g font-weight="400" font-style="normal" font-size="35.2778" fill="none" stroke-opacity="1" font-family="Noto Sans" stroke-width="7" stroke="#000000" transform="matrix(1,0,0,1,1485,1050)" stroke-linecap="round" stroke-linejoin="bevel">
    <path vector-effect="none" d="M-22.2932,-247.673 L-22.2932,-158.763" fill-rule="evenodd"/>
   </g>
   <g font-weight="400" font-style="normal" font-size="35.2778" fill="none" stroke-opacity="1" font-family="Noto Sans" stroke-width="7" stroke="#000000" transform="matrix(1,0,0,1,1485,1050)" stroke-linecap="round" stroke-linejoin="bevel">
    <path vector-effect="none" d="M-22.2932,-247.673 C-22.2932,-258.718 -31.2475,-267.673 -42.2932,-267.673 " fill-rule="evenodd"/>
   </g>
   <g font-weight="400" font-style="normal" font-size="35.2778" fill="none" stroke-opacity="1" font-family="Noto Sans" stroke-width="7" stroke="#000000" transform="matrix(1,0,0,1,1485,1050)" stroke-linecap="round" stroke-linejoin="bevel">
    <path vector-effect="none" d="M-131.203,-267.673 L-42.2932,-267.673" fill-rule="evenodd"/>
   </g>
   <g font-weight="400" font-style="normal" font-size="35.2778" fill="none" stroke-opacity="1" font-family="Noto Sans" stroke-width="7" stroke="#000000" transform="matrix(1,0,0,1,1485,1050)" stroke-linecap="round" stroke-linejoin="bevel">
    <path vector-effect="none" d="M1337.76,75 C1337.76,83.0081 1331.26,89.5 1323.26,89.5 C1315.25,89.5 1308.76,83.0081 1308.76,75 C1308.76,66.9919 1315.25,60.5 1323.26,60.5 C1331.26,60.5 1337.76,66.9919 1337.76,75 " fill-rule="evenodd"/>
   </g>
   <g font-weight="400" font-style="normal" font-size="35.2778" fill="none" stroke-opacity="1" font-family="Noto Sans" stroke-width="7" stroke="#000000" transform="matrix(1,0,0,1,1485,1050)" stroke-linecap="round" stroke-linejoin="bevel">
    <path vector-effect="none" d="M1337.76,-75 C1337.76,-66.9919 1331.26,-60.5 1323.26,-60.5 C1315.25,-60.5 1308.76,-66.9919 1308.76,-75 C1308.76,-83.0081 1315.25,-89.5 1323.26,-89.5 C1331.26,-89.5 1337.76,-83.0081 1337.76,-75 " fill-rule="evenodd"/>
   </g>
   <g font-weight="400" font-style="normal" font-size="35.2778" fill="none" stroke-opacity="1" font-family="Noto Sans" stroke-width="7" stroke="#000000" transform="matrix(1,0,0,1,1485,1050)" stroke-linecap="round" stroke-linejoin="bevel">
    <path vector-effect="none" d="M1187.76,-75 C1187.76,-66.9919 1181.26,-60.5 1173.26,-60.5 C1165.25,-60.5 1158.76,-66.9919 1158.76,-75 C1158.76,-83.0081 1165.25,-89.5 1173.26,-89.5 C1181.26,-89.5 1187.76,-83.0081 1187.76,-75 " fill-rule="evenodd"/>
   </g>
   <g font-weight="400" font-style="normal" font-size="35.2778" fill="none" stroke-opacity="1" font-family="Noto Sans" stroke-width="7" stroke="#000000" transform="matrix(1,0,0,1,1485,1050)" stroke-linecap="round" stroke-linejoin="bevel">
    <path vector-effect="none" d="M1187.76,75 C1187.76,83.0081 1181.26,89.5 1173.26,89.5 C1165.25,89.5 1158.76,83.0081 1158.76,75 C1158.76,66.9919 1165.25,60.5 1173.26,60.5 C1181.26,60.5 1187.76,66.9919 1187.76,75 " fill-rule="evenodd"/>
   </g>
   <g font-weight="400" font-style="normal" font-size="35.2778" fill="none" stroke-opacity="1" font-family="Noto Sans" stroke-width="7" stroke="#000000" transform="matrix(1,0,0,1,1485,1050)" stroke-linecap="round" stroke-linejoin="bevel">
    <path vector-effect="none" d="M-1238.76,-275 C-1238.76,-266.992 -1245.25,-260.5 -1253.26,-260.5 C-1261.26,-260.5 -1267.76,-266.992 -1267.76,-275 C-1267.76,-283.008 -1261.26,-289.5 -1253.26,-289.5 C-1245.25,-289.5 -1238.76,-283.008 -1238.76,-275 " fill-rule="evenodd"/>
   </g>
   <g font-weight="400" font-style="normal" font-size="35.2778" fill="none" stroke-opacity="1" font-family="Noto Sans" stroke-width="7" stroke="#000000" transform="matrix(1,0,0,1,1485,1050)" stroke-linecap="round" stroke-linejoin="bevel">
    <path vector-effect="none" d="M-1238.76,275 C-1238.76,283.008 -1245.25,289.5 -1253.26,289.5 C-1261.26,289.5 -1267.76,283.008 -1267.76,275 C-1267.76,266.992 -1261.26,260.5 -1253.26,260.5 C-1245.25,260.5 -1238.76,266.992 -1238.76,275 " fill-rule="evenodd"/>
   </g>
   <g font-weight="400" font-style="normal" font-size="35.2778" fill="none" stroke-opacity="1" font-family="Noto Sans" stroke-width="7" stroke="#000000" transform="matrix(1,0,0,1,1485,1050)" stroke-linecap="round" stroke-linejoin="bevel">
    <path vector-effect="none" d="M624.707,-280.311 C624.707,-272.303 618.215,-265.811 610.207,-265.811 C602.199,-265.811 595.707,-272.303 595.707,-280.311 C595.707,-288.319 602.199,-294.811 610.207,-294.811 C618.215,-294.811 624.707,-288.319 624.707,-280.311 " fill-rule="evenodd"/>
   </g>
   <g font-weight="400" font-style="normal" font-size="35.2778" fill="none" stroke-opacity="1" font-family="Noto Sans" stroke-width="7" stroke="#000000" transform="matrix(1,0,0,1,1485,1050)" stroke-linecap="round" stroke-linejoin="bevel">
    <path vector-effect="none" d="M624.707,297.689 C624.707,305.697 618.215,312.189 610.207,312.189 C602.199,312.189 595.707,305.697 595.707,297.689 C595.707,289.681 602.199,283.189 610.207,283.189 C618.215,283.189 624.707,289.681 624.707,297.689 " fill-rule="evenodd"/>
   </g>
   <g font-weight="400" font-style="normal" font-size="35.2778" fill="none" stroke-opacity="1" font-family="Noto Sans" stroke-width="7" stroke="#000000" transform="matrix(1,0,0,1,1485,1050)" stroke-linecap="round" stroke-linejoin="bevel">
    <path vector-effect="none" d="M-165.703,199.237 C-165.703,207.245 -172.195,213.737 -180.203,213.737 C-188.211,213.737 -194.703,207.245 -194.703,199.237 C-194.703,191.229 -188.211,184.737 -180.203,184.737 C-172.195,184.737 -165.703,191.229 -165.703,199.237 " fill-rule="evenodd"/>
   </g>
   <g font-weight="400" font-style="normal" font-size="35.2778" fill="none" stroke-opacity="1" font-family="Noto Sans" stroke-width="7" stroke="#000000" transform="matrix(1,0,0,1,1485,1050)" stroke-linecap="round" stroke-linejoin="bevel">
    <path vector-effect="none" d="M-689.703,249.237 C-689.703,257.245 -696.195,263.737 -704.203,263.737 C-712.211,263.737 -718.703,257.245 -718.703,249.237 C-718.703,241.229 -712.211,234.737 -704.203,234.737 C-696.195,234.737 -689.703,241.229 -689.703,249.237 " fill-rule="evenodd"/>
   </g>
   <g font-weight="400" font-style="normal" font-size="35.2778" fill="none" stroke-opacity="1" font-family="Noto Sans" stroke-width="7" stroke="#000000" transform="matrix(1,0,0,1,1485,1050)" stroke-linecap="round" stroke-linejoin="bevel">
    <path vector-effect="none" d="M-165.703,-89.7629 C-165.703,-81.7547 -172.195,-75.2629 -180.203,-75.2629 C-188.211,-75.2629 -194.703,-81.7547 -194.703,-89.7629 C-194.703,-97.771 -188.211,-104.263 -180.203,-104.263 C-172.195,-104.263 -165.703,-97.771 -165.703,-89.7629 " fill-rule="evenodd"/>
   </g>
   <g font-weight="400" font-style="normal" font-size="35.2778" fill="none" stroke-opacity="1" font-family="Noto Sans" stroke-width="7" stroke="#000000" transform="matrix(1,0,0,1,1485,1050)" stroke-linecap="round" stroke-linejoin="bevel">
    <path vector-effect="none" d="M-675.703,-242.763 C-675.703,-234.755 -682.195,-228.263 -690.203,-228.263 C-698.211,-228.263 -704.703,-234.755 -704.703,-242.763 C-704.703,-250.771 -698.211,-257.263 -690.203,-257.263 C-682.195,-257.263 -675.703,-250.771 -675.703,-242.763 " fill-rule="evenodd"/>
   </g>
   <g font-weight="400" font-style="normal" font-size="35.2778" fill="none" stroke-opacity="1" font-family="Noto Sans" stroke-width="7" stroke="#000000" transform="matrix(1,0,0,1,1485,1050)" stroke-linecap="round" stroke-linejoin="bevel">
    <path vector-effect="none" d="M175.007,411.529 C175.007,418.432 169.41,424.029 162.507,424.029 C155.603,424.029 150.007,418.432 150.007,411.529 C150.007,404.625 155.603,399.029 162.507,399.029 C169.41,399.029 175.007,404.625 175.007,411.529 " fill-rule="evenodd"/>
   </g>
   <g font-weight="400" font-style="normal" font-size="35.2778" fill="none" stroke-opacity="1" font-family="Noto Sans" stroke-width="7" stroke="#000000" transform="matrix(1,0,0,1,1485,1050)" stroke-linecap="round" stroke-linejoin="bevel">
    <path vector-effect="none" d="M-377.393,411.529 C-377.393,418.432 -382.99,424.029 -389.893,424.029 C-396.797,424.029 -402.393,418.432 -402.393,411.529 C-402.393,404.625 -396.797,399.029 -389.893,399.029 C-382.99,399.029 -377.393,404.625 -377.393,411.529 " fill-rule="evenodd"/>
   </g>
   <g font-weight="400" font-style="normal" font-size="35.2778" fill="none" stroke-opacity="1" font-family="Noto Sans" stroke-width="7" stroke="#000000" transform="matrix(1,0,0,1,1485,1050)" stroke-linecap="round" stroke-linejoin="bevel">
    <path vector-effect="none" d="M-21.0933,-411.511 C-21.0933,-404.608 -26.6898,-399.011 -33.5933,-399.011 C-40.4969,-399.011 -46.0933,-404.608 -46.0933,-411.511 C-46.0933,-418.415 -40.4969,-424.011 -33.5933,-424.011 C-26.6898,-424.011 -21.0933,-418.415 -21.0933,-411.511 " fill-rule="evenodd"/>
   </g>
   <g font-weight="400" font-style="normal" font-size="35.2778" fill="none" stroke-opacity="1" font-family="Noto Sans" stroke-width="7" stroke="#000000" transform="matrix(1,0,0,1,1485,1050)" stroke-linecap="round" stroke-linejoin="bevel">
    <path vector-effect="none" d="M-573.493,-411.511 C-573.493,-404.608 -579.09,-399.011 -585.993,-399.011 C-592.897,-399.011 -598.493,-404.608 -598.493,-411.511 C-598.493,-418.415 -592.897,-424.011 -585.993,-424.011 C-579.09,-424.011 -573.493,-418.415 -573.493,-411.511 " fill-rule="evenodd"/>
   </g>
   <g font-weight="400" font-style="normal" font-size="35.2778" fill="none" stroke-opacity="1" font-family="Noto Sans" stroke-width="1" stroke="#000000" transform="matrix(1,0,0,1,1485,1050)" stroke-linecap="square" stroke-linejoin="bevel">
    <rect width="0" y="0" x="0" height="0"/>
   </g>
   <g font-weight="400" font-style="normal" font-size="35.2778" fill="none" stroke-opacity="1" font-family="Noto Sans" stroke-width="1" stroke="#000000" transform="matrix(1,0,0,1,1352.36,174.413)" stroke-linecap="square" stroke-linejoin="bevel">
    <text fill-opacity="1" xml:space="preserve" font-weight="400" font-style="normal" font-size="50" fill="#000000" y="70" font-family="osifont" stroke="none" x="4">280.65</text>
   </g>
   <g font-weight="400" font-style="normal" font-size="35.2778" fill="none" stroke-opacity="1" font-family="Noto Sans" stroke-width="3.5" stroke="#000000" transform="matrix(1,0,0,1,1485,1050)" stroke-linecap="round" stroke-linejoin="bevel">
    <path vector-effect="none" d="M-1403.26,-790.337 L1403.26,-790.337 M1403.26,-136.45 L1403.26,-818.337 M-1403.26,-136.45 L-1403.26,-818.337" fill-rule="evenodd"/>
   </g>
   <g fill-opacity="1" font-weight="400" font-style="normal" font-size="35.2778" fill="#000000" stroke-opacity="1" font-family="Noto Sans" stroke-width="3.5" stroke="#000000" transform="matrix(1,0,0,1,2888.26,259.663)" stroke-linecap="round" stroke-linejoin="bevel">
    <path vector-effect="none" d="M0,0 L-50,-8.33333 L-50,8.33333 L0,0" fill-rule="evenodd"/>
   </g>
   <g fill-opacity="1" font-weight="400" font-style="normal" font-size="35.2778" fill="#000000" stroke-opacity="1" font-family="Noto Sans" stroke-width="3.5" stroke="#000000" transform="matrix(1,0,0,1,81.7433,259.663)" stroke-linecap="round" stroke-linejoin="bevel">
    <path vector-effect="none" d="M0,0 L50,8.33333 L50,-8.33333 L0,0" fill-rule="evenodd"/>
   </g>
   <g font-weight="400" font-style="normal" font-size="35.2778" fill="none" stroke-opacity="1" font-family="Noto Sans" stroke-width="1" stroke="#000000" transform="matrix(1,0,0,1,1485,1050)" stroke-linecap="square" stroke-linejoin="bevel">
    <rect width="0" y="0" x="0" height="0"/>
   </g>
   <g font-weight="400" font-style="normal" font-size="35.2778" fill="none" stroke-opacity="1" font-family="Noto Sans" stroke-width="1" stroke="#000000" transform="matrix(0,-1,1,0,2216.02,1123.04)" stroke-linecap="square" stroke-linejoin="bevel">
    <text fill-opacity="1" xml:space="preserve" font-weight="400" font-style="normal" font-size="50" fill="#000000" y="70" font-family="osifont" stroke="none" x="4">54.89</text>
   </g>
   <g font-weight="400" font-style="normal" font-size="35.2778" fill="none" stroke-opacity="1" font-family="Noto Sans" stroke-width="3.5" stroke="#000000" transform="matrix(1,0,0,1,1485,1050)" stroke-linecap="round" stroke-linejoin="bevel">
    <path vector-effect="none" d="M816.268,-275.074 L816.268,273.831 M980.871,273.831 L788.268,273.831 M979.7,-275.074 L788.268,-275.074" fill-rule="evenodd"/>
   </g>
   <g fill-opacity="1" font-weight="400" font-style="normal" font-size="35.2778" fill="#000000" stroke-opacity="1" font-family="Noto Sans" stroke-width="3.5" stroke="#000000" transform="matrix(1,0,0,1,2301.27,1323.83)" stroke-linecap="round" stroke-linejoin="bevel">
    <path vector-effect="none" d="M0,0 L8.33333,-50 L-8.33333,-50 L0,0" fill-rule="evenodd"/>
   </g>
   <g fill-opacity="1" font-weight="400" font-style="normal" font-size="35.2778" fill="#000000" stroke-opacity="1" font-family="Noto Sans" stroke-width="3.5" stroke="#000000" transform="matrix(1,0,0,1,2301.27,774.926)" stroke-linecap="round" stroke-linejoin="bevel">
    <path vector-effect="none" d="M0,0 L-8.33333,50 L8.33333,50 L0,0" fill-rule="evenodd"/>
   </g>
   <g font-weight="400" font-style="normal" font-size="35.2778" fill="none" stroke-opacity="1" font-family="Noto Sans" stroke-width="1" stroke="#000000" transform="matrix(1,0,0,1,1485,1050)" stroke-linecap="square" stroke-linejoin="bevel">
    <rect width="0" y="0" x="0" height="0"/>
   </g>
   <g font-weight="400" font-style="normal" font-size="35.2778" fill="none" stroke-opacity="1" font-family="Noto Sans" stroke-width="1" stroke="#000000" transform="matrix(1,0,0,1,1468.58,1794.55)" stroke-linecap="square" stroke-linejoin="bevel">
    <text fill-opacity="1" xml:space="preserve" font-weight="400" font-style="normal" font-size="50" fill="#000000" y="70" font-family="osifont" stroke="none" x="4">238.41</text>
   </g>
   <g font-weight="400" font-style="normal" font-size="35.2778" fill="none" stroke-opacity="1" font-family="Noto Sans" stroke-width="3.5" stroke="#000000" transform="matrix(1,0,0,1,1485,1050)" stroke-linecap="round" stroke-linejoin="bevel">
    <path vector-effect="none" d="M-1403.26,829.797 L980.871,829.797 M980.871,273.831 L980.871,857.797 M-1403.26,-275 L-1403.26,857.797" fill-rule="evenodd"/>
   </g>
   <g fill-opacity="1" font-weight="400" font-style="normal" font-size="35.2778" fill="#000000" stroke-opacity="1" font-family="Noto Sans" stroke-width="3.5" stroke="#000000" transform="matrix(1,0,0,1,2465.87,1879.8)" stroke-linecap="round" stroke-linejoin="bevel">
    <path vector-effect="none" d="M0,0 L-50,-8.33333 L-50,8.33333 L0,0" fill-rule="evenodd"/>
   </g>
   <g fill-opacity="1" font-weight="400" font-style="normal" font-size="35.2778" fill="#000000" stroke-opacity="1" font-family="Noto Sans" stroke-width="3.5" stroke="#000000" transform="matrix(1,0,0,1,81.7433,1879.8)" stroke-linecap="round" stroke-linejoin="bevel">
    <path vector-effect="none" d="M0,0 L50,8.33333 L50,-8.33333 L0,0" fill-rule="evenodd"/>
   </g>
   <g font-weight="400" font-style="normal" font-size="35.2778" fill="none" stroke-opacity="1" font-family="Noto Sans" stroke-width="1" stroke="#000000" transform="matrix(1,0,0,1,1485,1050)" stroke-linecap="square" stroke-linejoin="bevel">
    <rect width="0" y="0" x="0" height="0"/>
   </g>
   <g font-weight="400" font-style="normal" font-size="35.2778" fill="none" stroke-opacity="1" font-family="Noto Sans" stroke-width="1" stroke="#000000" transform="matrix(0,-1,1,0,2669.98,1129.41)" stroke-linecap="square" stroke-linejoin="bevel">
    <text fill-opacity="1" xml:space="preserve" font-weight="400" font-style="normal" font-size="50" fill="#000000" y="70" font-family="osifont" stroke="none" x="4">103.92</text>
   </g>
   <g font-weight="400" font-style="normal" font-size="35.2778" fill="none" stroke-opacity="1" font-family="Noto Sans" stroke-width="3.5" stroke="#000000" transform="matrix(1,0,0,1,1485,1050)" stroke-linecap="round" stroke-linejoin="bevel">
    <path vector-effect="none" d="M1270.23,519.615 L1270.23,-519.615 M1403.26,-519.615 L1242.23,-519.615 M1403.26,519.615 L1242.23,519.615" fill-rule="evenodd"/>
   </g>
   <g fill-opacity="1" font-weight="400" font-style="normal" font-size="35.2778" fill="#000000" stroke-opacity="1" font-family="Noto Sans" stroke-width="3.5" stroke="#000000" transform="matrix(1,0,0,1,2755.23,530.385)" stroke-linecap="round" stroke-linejoin="bevel">
    <path vector-effect="none" d="M0,0 L-8.33333,50 L8.33333,50 L0,0" fill-rule="evenodd"/>
   </g>
   <g fill-opacity="1" font-weight="400" font-style="normal" font-size="35.2778" fill="#000000" stroke-opacity="1" font-family="Noto Sans" stroke-width="3.5" stroke="#000000" transform="matrix(1,0,0,1,2755.23,1569.62)" stroke-linecap="round" stroke-linejoin="bevel">
    <path vector-effect="none" d="M0,0 L8.33333,-50 L-8.33333,-50 L0,0" fill-rule="evenodd"/>
   </g>
   <g font-weight="400" font-style="normal" font-size="35.2778" fill="none" stroke-opacity="1" font-family="Noto Sans" stroke-width="1" stroke="#000000" transform="matrix(1,0,0,1,1485,1050)" stroke-linecap="square" stroke-linejoin="bevel">
    <rect width="0" y="0" x="0" height="0"/>
   </g>
   <g font-weight="400" font-style="normal" font-size="35.2778" fill="none" stroke-opacity="1" font-family="Noto Sans" stroke-width="1" stroke="#000000" transform="matrix(0.921964,0.387275,-0.387275,0.921964,1458.39,932.289)" stroke-linecap="square" stroke-linejoin="bevel">
    <text fill-opacity="1" xml:space="preserve" font-weight="400" font-style="normal" font-size="50" fill="#000000" y="70" font-family="osifont" stroke="none" x="4">R1.45</text>
   </g>
   <g font-weight="400" font-style="normal" font-size="35.2778" fill="none" stroke-opacity="1" font-family="Noto Sans" stroke-width="3.5" stroke="#000000" transform="matrix(1,0,0,1,1485,1050)" stroke-linecap="round" stroke-linejoin="bevel">
    <path vector-effect="none" d="M-180.203,-89.7629 L45.3487,4.98118" fill-rule="evenodd"/>
   </g>
   <g fill-opacity="1" font-weight="400" font-style="normal" font-size="35.2778" fill="#000000" stroke-opacity="1" font-family="Noto Sans" stroke-width="3.5" stroke="#000000" transform="matrix(1,0,0,1,1318.17,965.853)" stroke-linecap="round" stroke-linejoin="bevel">
    <path vector-effect="none" d="M0,0 L42.8709,27.0468 L49.3255,11.6807 L0,0" fill-rule="evenodd"/>
   </g>
   <g font-weight="400" font-style="normal" font-size="35.2778" fill="none" stroke-opacity="1" font-family="Noto Sans" stroke-width="1" stroke="#000000" transform="matrix(1,0,0,1,1485,1050)" stroke-linecap="square" stroke-linejoin="bevel">
    <rect width="0" y="0" x="0" height="0"/>
   </g>
   <g font-weight="400" font-style="normal" font-size="35.2778" fill="none" stroke-opacity="1" font-family="Noto Sans" stroke-width="1" stroke="#000000" transform="matrix(0,-1,1,0,845.666,580.617)" stroke-linecap="square" stroke-linejoin="bevel">
    <text fill-opacity="1" xml:space="preserve" font-weight="400" font-style="normal" font-size="50" fill="#000000" y="70" font-family="osifont" stroke="none" x="4">8.00</text>
   </g>
   <g font-weight="400" font-style="normal" font-size="35.2778" fill="none" stroke-opacity="1" font-family="Noto Sans" stroke-width="3.5" stroke="#000000" transform="matrix(1,0,0,1,1485,1050)" stroke-linecap="round" stroke-linejoin="bevel">
    <path vector-effect="none" d="M-554.084,-401.145 L-554.084,-681.145 M-496.743,-581.145 L-582.084,-581.145 M-496.743,-501.145 L-582.084,-501.145" fill-rule="evenodd"/>
   </g>
   <g fill-opacity="1" font-weight="400" font-style="normal" font-size="35.2778" fill="#000000" stroke-opacity="1" font-family="Noto Sans" stroke-width="3.5" stroke="#000000" transform="matrix(1,0,0,1,930.916,468.855)" stroke-linecap="round" stroke-linejoin="bevel">
    <path vector-effect="none" d="M0,0 L8.33333,-50 L-8.33333,-50 L0,0" fill-rule="evenodd"/>
   </g>
   <g fill-opacity="1" font-weight="400" font-style="normal" font-size="35.2778" fill="#000000" stroke-opacity="1" font-family="Noto Sans" stroke-width="3.5" stroke="#000000" transform="matrix(1,0,0,1,930.916,548.855)" stroke-linecap="round" stroke-linejoin="bevel">
    <path vector-effect="none" d="M0,0 L-8.33333,50 L8.33333,50 L0,0" fill-rule="evenodd"/>
   </g>
   <g font-weight="400" font-style="normal" font-size="35.2778" fill="none" stroke-opacity="1" font-family="Noto Sans" stroke-width="1" stroke="#000000" transform="matrix(1,0,0,1,1485,1050)" stroke-linecap="square" stroke-linejoin="bevel">
    <rect width="0" y="0" x="0" height="0"/>
   </g>
   <g font-weight="400" font-style="normal" font-size="35.2778" fill="none" stroke-opacity="1" font-family="Noto Sans" stroke-width="1" stroke="#000000" transform="matrix(1,0,0,1,1207.33,612.726)" stroke-linecap="square" stroke-linejoin="bevel">
    <text fill-opacity="1" xml:space="preserve" font-weight="400" font-style="normal" font-size="50" fill="#000000" y="70" font-family="osifont" stroke="none" x="4">57.00</text>
   </g>
   <g font-weight="400" font-style="normal" font-size="35.2778" fill="none" stroke-opacity="1" font-family="Noto Sans" stroke-width="3.5" stroke="#000000" transform="matrix(1,0,0,1,1485,1050)" stroke-linecap="round" stroke-linejoin="bevel">
    <path vector-effect="none" d="M73.2567,-352.024 L-496.743,-352.024 M-496.743,-501.145 L-496.743,-324.024 M73.2567,-501.145 L73.2567,-324.024" fill-rule="evenodd"/>
   </g>
   <g fill-opacity="1" font-weight="400" font-style="normal" font-size="35.2778" fill="#000000" stroke-opacity="1" font-family="Noto Sans" stroke-width="3.5" stroke="#000000" transform="matrix(1,0,0,1,988.257,697.976)" stroke-linecap="round" stroke-linejoin="bevel">
    <path vector-effect="none" d="M0,0 L50,8.33333 L50,-8.33333 L0,0" fill-rule="evenodd"/>
   </g>
   <g fill-opacity="1" font-weight="400" font-style="normal" font-size="35.2778" fill="#000000" stroke-opacity="1" font-family="Noto Sans" stroke-width="3.5" stroke="#000000" transform="matrix(1,0,0,1,1558.26,697.976)" stroke-linecap="round" stroke-linejoin="bevel">
    <path vector-effect="none" d="M0,0 L-50,-8.33333 L-50,8.33333 L0,0" fill-rule="evenodd"/>
   </g>
   <g font-weight="400" font-style="normal" font-size="35.2778" fill="none" stroke-opacity="1" font-family="Noto Sans" stroke-width="1" stroke="#000000" transform="matrix(1,0,0,1,1485,1050)" stroke-linecap="square" stroke-linejoin="bevel">
    <rect width="0" y="0" x="0" height="0"/>
   </g>
   <g font-weight="400" font-style="normal" font-size="35.2778" fill="none" stroke-opacity="1" font-family="Noto Sans" stroke-width="1" stroke="#000000" transform="matrix(0,-1,1,0,1812.59,1188.16)" stroke-linecap="square" stroke-linejoin="bevel">
    <text fill-opacity="1" xml:space="preserve" font-weight="400" font-style="normal" font-size="50" fill="#000000" y="70" font-family="osifont" stroke="none" x="4">130.00</text>
   </g>
   <g font-weight="400" font-style="normal" font-size="35.2778" fill="none" stroke-opacity="1" font-family="Noto Sans" stroke-width="3.5" stroke="#000000" transform="matrix(1,0,0,1,1485,1050)" stroke-linecap="round" stroke-linejoin="bevel">
    <path vector-effect="none" d="M412.844,-650 L412.844,650 M-211.743,650 L440.844,650 M-211.743,-650 L440.844,-650" fill-rule="evenodd"/>
   </g>
   <g fill-opacity="1" font-weight="400" font-style="normal" font-size="35.2778" fill="#000000" stroke-opacity="1" font-family="Noto Sans" stroke-width="3.5" stroke="#000000" transform="matrix(1,0,0,1,1897.84,1700)" stroke-linecap="round" stroke-linejoin="bevel">
    <path vector-effect="none" d="M0,0 L8.33333,-50 L-8.33333,-50 L0,0" fill-rule="evenodd"/>
   </g>
   <g fill-opacity="1" font-weight="400" font-style="normal" font-size="35.2778" fill="#000000" stroke-opacity="1" font-family="Noto Sans" stroke-width="3.5" stroke="#000000" transform="matrix(1,0,0,1,1897.84,400)" stroke-linecap="round" stroke-linejoin="bevel">
    <path vector-effect="none" d="M0,0 L-8.33333,50 L8.33333,50 L0,0" fill-rule="evenodd"/>
   </g>
  </g>
 </g>
</svg>
